<svg xmlns="http://www.w3.org/2000/svg" viewBox="0 0 222.64 401.86"><g id="Layer_2" data-name="Layer 2"><path d="M441.26,276.51a4.35,4.35,0,0,0-3.42-1.65s-13.36-1.2-25.31-1.41c-9.49-.18-18.12.61-18.12.61s-4.19-.19-4.86-3,2.22-8.27,2.22-8.27l21.81-56.13s.85-3.72-.11-6.41a7.28,7.28,0,0,0-3.39-3.41A13,13,0,0,0,404,199a13.2,13.2,0,0,0-4.14,4.57l-30.95,60.11s-2.1,6-7.19,8.87c-5.41,3.08-13.82,3.08-13.82,3.08s-37,3.39-64.3,11.48a87,87,0,0,0-31,16.73s-12.07,9.1-10.93,18.76c1.05,8.81,15.32,18.27,15.32,18.27a142,142,0,0,0,17.11,9c10,4.26,21.91,8.69,31,13,9.63,4.58,12.88,10,12.88,10s3.78,4.52,3.13,8.47-5.79,7.6-5.79,7.6-17.08,12-34.3,20.15a191,191,0,0,1-33.44,11.79s-6.76,1.78-8.94-.22c-1.73-1.57,1-7,1-7a58.75,58.75,0,0,1,7.67-16c8.11-11.89,20.69-25.61,20.69-25.61a8.54,8.54,0,0,0,1.31-6.82c-.69-2.74-2.18-5.42-4.3-6.21-1.94-.72-5,.4-7.57,1.79-3.85,2.06-5.09,3.58-5.09,3.58s-11.57,11.7-19.08,24.93a153.28,153.28,0,0,0-12.88,31.34s-2.19,10,2.67,14c5.51,4.57,18.16,3.23,18.16,3.23s20.57-2.68,39-10.21c16.57-6.77,31.24-18.48,31.24-18.48s5.66-3.94,7.22-2.46c1.83,1.72-.4,8.9-.4,8.9l-69.08,170s-2.72,9.85.72,12.17c1.63,1.09,4.67,1,7.32-.07,3.09-1.19,5-5.81,5-5.81s48.52-104.79,82-190.11a892.84,892.84,0,0,0,33-103.25s1.05-5.05,4.7-7.85c3.14-2.41,9-2.64,9-2.64l46.43-2.48s4.61-1.21,5.1-4.29A7.81,7.81,0,0,0,441.26,276.51ZM359,298,337.1,363c.35-1.07-.94,3.41-1.91,4a2.89,2.89,0,0,1-2.55,0,184.7,184.7,0,0,0-26.5-17.88c-20.25-11.06-45.28-21.07-45.28-21.07a8.47,8.47,0,0,1-4.46-4.16,5.87,5.87,0,0,1-.3-3.22,7.94,7.94,0,0,1,2.35-3.85l2.41-2.85a75.49,75.49,0,0,1,18-12.47,125.11,125.11,0,0,1,25.57-9.63c20.45-5.13,45.09-3,45.09-3s6,.59,8.65,3.17C360.12,293.92,359,298,359,298Z" transform="translate(-219.93 -196.8)"/></g></svg>